<?xml version="1.0" encoding="utf-8"?>
<svg xmlns="http://www.w3.org/2000/svg" viewBox="0 0 48 48" width="144" height="144">
  <path d="M24 4C12.972 4 4 12.972 4 24C4 27.886 5.1325937 31.505125 7.0585938 34.578125L9.2382812 32.398438C7.8212813 29.918437 7 27.056 7 24C7 14.626 14.626 7 24 7C27.056 7 29.918438 7.8212812 32.398438 9.2382812L34.578125 7.0585938C31.506125 5.1325937 27.887 4 24 4 z M 42.5 4C42.11625 4 41.732453 4.1464531 41.439453 4.4394531L4.4394531 41.439453C3.8534531 42.024453 3.8534531 42.975547 4.4394531 43.560547C4.7324531 43.853547 5.116 44 5.5 44C5.884 44 6.2685469 43.853547 6.5605469 43.560547L10.994141 39.126953C14.495628 42.144292 19.025324 44 24 44C35.028 44 44 35.028 44 24C44 19.025522 42.144923 14.495572 39.126953 10.994141L43.560547 6.5605469C44.146547 5.9755469 44.146547 5.0244531 43.560547 4.4394531C43.267547 4.1464531 42.88375 4 42.5 4 z M 25.078125 10.53125C24.719688 10.526 24.377156 10.563781 24.066406 10.613281C18.713406 11.465281 18.185422 16.779297 20.857422 20.779297L28.595703 13.041016C28.529703 12.851016 28.451656 12.669906 28.347656 12.503906C27.376406 10.942406 26.153437 10.547 25.078125 10.53125 z M 37.003906 13.117188C39.481647 16.069939 41 19.853033 41 24C41 33.374 33.374 41 24 41C19.852303 41 16.069331 39.481594 13.117188 37.003906L22.193359 27.927734C22.765059 28.198571 23.385285 28.337891 24.009766 28.337891C24.082766 28.337891 24.155516 28.321359 24.228516 28.318359C24.301516 29.206359 23.857562 30.057422 21.976562 30.357422C19.461562 30.759422 18.606391 33.819047 19.650391 35.498047C20.945391 37.581047 22.689594 37.586672 23.933594 37.388672C29.353594 36.525672 29.831875 31.086312 27.046875 27.070312C27.950875 26.172313 28.375547 24.968484 28.310547 23.771484C29.201547 23.695484 30.054469 24.136484 30.355469 26.021484C30.757469 28.536484 33.817094 29.391656 35.496094 28.347656C37.578094 27.052656 37.584719 25.310406 37.386719 24.066406C36.769807 20.190071 33.810863 18.848343 30.707031 19.414062L37.003906 13.117188 z M 13.958984 19.220703C13.429719 19.248141 12.923656 19.391344 12.503906 19.652344C10.421906 20.947344 10.415281 22.690594 10.613281 23.933594C10.958281 26.104594 12.044656 27.470063 13.472656 28.164062L18.15625 23.480469C17.93225 23.133469 17.751531 22.651516 17.644531 21.978516C17.343031 20.091516 15.546781 19.138391 13.958984 19.220703 z" fill="#FFFFFF" />
</svg>