<?xml version="1.0" encoding="utf-8"?>
<svg xmlns="http://www.w3.org/2000/svg" viewBox="0 0 48 48" width="144" height="144">
  <path d="M24 4C12.972066 4 4 12.972074 4 24C4 35.027926 12.972066 44 24 44C35.027934 44 44 35.027926 44 24C44 12.972074 35.027934 4 24 4 z M 24 7C33.406615 7 41 14.593391 41 24C41 33.406609 33.406615 41 24 41C14.593385 41 7 33.406609 7 24C7 14.593391 14.593385 7 24 7 z M 25.076172 10.53125C24.717594 10.526 24.375453 10.563781 24.064453 10.613281C18.653534 11.474611 18.169208 16.895668 20.939453 20.910156C20.884187 20.965019 20.814958 21.00871 20.763672 21.066406C20.01693 21.906492 19.677734 22.968682 19.677734 24.009766C19.677734 24.079397 19.692257 24.149019 19.695312 24.21875C18.801867 24.297857 17.946454 23.86838 17.644531 21.978516C17.242531 19.463516 14.182906 18.610297 12.503906 19.654297C10.421906 20.949297 10.415281 22.692547 10.613281 23.935547C11.4727 29.339312 16.881436 29.829079 20.894531 27.070312C21.644285 27.837761 22.757293 28.339844 24.007812 28.339844C24.080349 28.339844 24.151015 28.331402 24.222656 28.328125C24.291366 29.213087 23.851327 30.05627 21.978516 30.355469C19.463516 30.757469 18.608344 33.817094 19.652344 35.496094C20.947344 37.578094 22.691547 37.584719 23.935547 37.386719C29.337011 36.526894 29.828229 31.123704 27.074219 27.111328C27.130508 27.055568 27.199781 27.009865 27.251953 26.951172C27.998695 26.111087 28.339844 25.050849 28.339844 24.009766C28.339844 23.932972 28.324051 23.856223 28.320312 23.779297C29.208086 23.706732 30.055309 24.142657 30.355469 26.021484C30.757469 28.536484 33.817094 29.389703 35.496094 28.345703C37.578094 27.050703 37.584719 25.308453 37.386719 24.064453C36.527044 18.659997 31.115018 18.170105 27.101562 20.931641C26.351867 20.17429 25.248717 19.677734 24.007812 19.677734C23.930673 19.677734 23.85542 19.68575 23.779297 19.689453C23.703277 18.798123 24.136324 17.945703 26.021484 17.644531C28.536484 17.242531 29.391656 14.182906 28.347656 12.503906C27.376406 10.942406 26.151906 10.547 25.076172 10.53125 z M 24.007812 22.677734C24.57648 22.677734 24.812842 22.837054 25.009766 23.058594C25.20669 23.280133 25.339844 23.635349 25.339844 24.009766C25.339844 24.384182 25.20669 24.737445 25.009766 24.958984C24.812842 25.180524 24.57648 25.339844 24.007812 25.339844C23.439146 25.339844 23.202783 25.180524 23.005859 24.958984C22.808935 24.737445 22.677734 24.384182 22.677734 24.009766C22.677734 23.635349 22.808935 23.280133 23.005859 23.058594C23.202783 22.837054 23.439146 22.677734 24.007812 22.677734 z" fill="var(--neutral)" />
</svg>