<svg class="navbar__link-icon" version="1.1"  xmlns="http://www.w3.org/2000/svg" xmlns:xlink="http://www.w3.org/1999/xlink" x="0px" y="0px"
	 viewBox="0 0 32 32" style="enable-background:new 0 0 32 32;" xml:space="preserve" width="32" height="32">
<path class="navbar__link-icon-path" d="M13.7,16h-4c-0.6,0-1,0.5-1,1v5.3c0,0.6,0.4,1,1,1h4c0.5,0,1-0.4,1-1V17C14.7,16.5,14.2,16,13.7,16z M12.7,21.3
	h-2V18h2V21.3z M22.3,16h-4c-0.5,0-1,0.5-1,1v5.3c0,0.6,0.5,1,1,1h4c0.6,0,1-0.4,1-1V17C23.3,16.5,22.9,16,22.3,16z M21.3,21.3h-2
	V18h2V21.3z M13.7,16h-4c-0.6,0-1,0.5-1,1v5.3c0,0.6,0.4,1,1,1h4c0.5,0,1-0.4,1-1V17C14.7,16.5,14.2,16,13.7,16z M12.7,21.3h-2V18h2
	V21.3z M22.3,16h-4c-0.5,0-1,0.5-1,1v5.3c0,0.6,0.5,1,1,1h4c0.6,0,1-0.4,1-1V17C23.3,16.5,22.9,16,22.3,16z M21.3,21.3h-2V18h2V21.3
	z M13.7,16h-4c-0.6,0-1,0.5-1,1v5.3c0,0.6,0.4,1,1,1h4c0.5,0,1-0.4,1-1V17C14.7,16.5,14.2,16,13.7,16z M12.7,21.3h-2V18h2V21.3z
	 M22.3,16h-4c-0.5,0-1,0.5-1,1v5.3c0,0.6,0.5,1,1,1h4c0.6,0,1-0.4,1-1V17C23.3,16.5,22.9,16,22.3,16z M21.3,21.3h-2V18h2V21.3z"/>
<path class="navbar__link-icon-indicator" d="M26.1,10.3l-7.9-6.2c-0.6-0.5-1.4-0.8-2.2-0.8s-1.5,0.2-2.2,0.8c0,0,0,0,0,0l-7.9,6.2C4.7,11.3,4,12.7,4,14.3
	v12.1c0,1.3,1.1,2.3,2.3,2.3h19.3c1.3,0,2.3-1.1,2.3-2.3V14.3C28,12.7,27.3,11.3,26.1,10.3z M26,26.3c0,0.2-0.1,0.3-0.3,0.3H6.3
	c-0.2,0-0.3-0.1-0.3-0.3V14.3c0-0.9,0.4-1.8,1.1-2.4l7.9-6.2c0.3-0.2,0.6-0.3,0.9-0.3s0.7,0.1,0.9,0.3l7.9,6.2
	c0.7,0.6,1.1,1.4,1.1,2.4V26.3z" />
</svg>
