<?xml version="1.0" encoding="utf-8"?>
<svg xmlns="http://www.w3.org/2000/svg" viewBox="0 0 48 48" width="144" height="144">
  <path d="M24 4.015625C16.289774 4.0178592 10 10.286931 10 18C10 21.999465 11.691407 25.619495 14.388672 28.167969C14.705917 28.467557 14.938931 28.889561 15.046875 29.373047L17.513672 40.476562C17.969216 42.527257 19.805576 44 21.90625 44L26.09375 44C28.194629 44 30.030487 42.527102 30.486328 40.476562L32.955078 29.373047L32.955078 29.371094C33.062069 28.888989 33.293691 28.469343 33.611328 28.169922L33.611328 28.167969L33.613281 28.167969C36.309356 25.619613 38 21.999465 38 18C38 10.286931 31.710226 4.0178592 24 4.015625 z M 24 7.015625C30.093774 7.0173908 35 11.909069 35 18C35 21.156535 33.67466 23.980731 31.550781 25.988281C30.753594 26.740588 30.250209 27.709621 30.025391 28.722656L28.853516 34L19.146484 34L17.974609 28.720703C17.748553 27.708189 17.245974 26.740693 16.449219 25.988281C14.324484 23.980755 13 21.156535 13 18C13 11.909069 17.906226 7.0173908 24 7.015625 z M 19.814453 37L28.185547 37L27.558594 39.826172C27.404435 40.519634 26.804871 41 26.09375 41L21.90625 41C21.192924 41 20.595862 40.521478 20.441406 39.826172L19.814453 37 z" fill="#FFFFFF" />
</svg>