<?xml version="1.0" encoding="utf-8"?>
<svg xmlns="http://www.w3.org/2000/svg" viewBox="0 0 48 48" width="144" height="144">
  <path d="M42.470703 3.9863281 A 1.50015 1.50015 0 0 0 41.439453 4.4394531L4.4394531 41.439453 A 1.50015 1.50015 0 1 0 6.5605469 43.560547L16.082031 34.039062L17.5 40.5C18 42.6 19.800391 44 21.900391 44L26.099609 44C28.199609 44 30 42.6 30.5 40.5L33 29.400391C33.1 28.900391 33.299219 28.499219 33.699219 28.199219C36.399219 25.499219 38 21.9 38 18C38 16.267274 37.658046 14.592296 37.0625 13.058594L43.560547 6.5605469 A 1.50015 1.50015 0 0 0 42.470703 3.9863281 z M 24 4C16.3 4 10 10.3 10 18C10 21.7 11.400391 25.099219 13.900391 27.699219L16.099609 25.599609C14.099609 23.499609 13 20.9 13 18C13 11.9 17.9 7 24 7C26.9 7 29.599609 8.2 31.599609 10L33.699219 7.9003906C31.199219 5.5003906 27.8 4 24 4 z M 34.691406 15.429688C34.883125 16.252147 35 17.106592 35 18C35 21 33.799609 23.9 31.599609 26C30.799609 26.7 30.299609 27.699219 30.099609 28.699219L28.90625 34L19.123047 34L18.582031 31.539062L34.691406 15.429688 z M 19.783203 37L28.230469 37L27.599609 39.800781C27.399609 40.500781 26.799609 41 26.099609 41L21.900391 41C21.200391 41 20.600391 40.500781 20.400391 39.800781L19.783203 37 z" fill="var(--secondary-lightest)" />
</svg>