<?xml version="1.0" encoding="utf-8"?>
<!-- Generator: Adobe Illustrator 26.3.1, SVG Export Plug-In . SVG Version: 6.00 Build 0)  -->
<svg version="1.1" id="Layer_1" xmlns="http://www.w3.org/2000/svg" xmlns:xlink="http://www.w3.org/1999/xlink" width="90%" height="90%"
	 viewBox="0 0 144 144" style="enable-background:new 0 0 144 144;" xml:space="preserve">
	 <defs>
        <filter id="light-glow">
          <feGaussianBlur stdDeviation="5" result="glow" />
          <feMerge>
            <feMergeNode in="glow" />
            <feMergeNode in="SourceGraphic" />
          </feMerge>
        </filter>
      </defs>
	  <path d="M48.2,102l4.3,19.4c1.4,6.2,6.9,10.6,13.2,10.6h12.6c6.3,0,11.8-4.4,13.2-10.6l4.3-19.4H48.2z M82.7,119.5
	c-0.5,2.1-2.3,3.5-4.4,3.5H65.7c-2.1,0-3.9-1.4-4.4-3.5l-1.9-8.5h25.1L82.7,119.5z" fill="var(--neutral)" />
<path filter="url(#light-glow)" d="M72,12c-23.1,0-42,18.8-42,42c0,12,5.1,22.9,13.2,30.5c1,0.9,1.7,2.2,2,3.6l3.1,13.9h9.2l-3.5-15.8
	c-0.7-3-2.2-5.9-4.6-8.2C43,71.9,39,63.5,39,54c0-18.3,14.7-33,33-33s33,14.7,33,33c0,9.5-4,17.9-10.3,24c-2.4,2.3-3.9,5.2-4.6,8.2
	L86.6,102h9.2l3.1-13.9v0c0.3-1.4,1-2.7,2-3.6v0h0C108.9,76.9,114,66,114,54C114,30.9,95.1,12,72,12z" fill="#ffde4d" />

</svg>
