<?xml version="1.0" encoding="utf-8"?>
<svg xmlns="http://www.w3.org/2000/svg" viewBox="0 0 30 30" width="480" height="480">
  <path d="M15 3C10.041484 3 6 7.0414839 6 12C6 15.333333 7.6789933 17.826335 9.2246094 19.724609C9.9974174 20.673746 10.743767 21.492938 11.257812 22.1875C11.771859 22.882062 12 23.419011 12 23.738281L12 24L12 25L12 26C12 27.105 12.895 28 14 28 A 1 1 0 0 0 15 29 A 1 1 0 0 0 16 28C17.105 28 18 27.105 18 26L18 25L18 24L18 23.777344C18.01494 23.397772 18.273021 22.829849 18.798828 22.121094C19.324635 21.412339 20.07361 20.590538 20.84375 19.644531C22.384031 17.752517 24.037873 15.285425 24 11.988281C23.942923 7.043806 19.958516 3 15 3 z M 15 5C18.877484 5 21.955077 8.120194 22 12.011719C22.03013 14.634575 20.741438 16.601623 19.292969 18.380859C18.568734 19.270477 17.811818 20.09341 17.191406 20.929688C16.570994 21.765963 16.04156 22.64329 16 23.699219 A 1.0001 1.0001 0 0 0 16 23.738281L16 24L14 24L14 23.738281C14 22.688551 13.478141 21.823548 12.867188 20.998047C12.256233 20.172546 11.502583 19.35405 10.775391 18.460938C9.3210063 16.674712 8 14.666667 8 12C8 8.1225161 11.122516 5 15 5 z" fill="#FFFFFF" />
</svg>