<?xml version="1.0" encoding="utf-8"?>
<!-- Generator: Adobe Illustrator 26.3.1, SVG Export Plug-In . SVG Version: 6.00 Build 0)  -->
<svg class="navbar__link-icon" version="1.1" id="Layer_1" xmlns="http://www.w3.org/2000/svg" xmlns:xlink="http://www.w3.org/1999/xlink" x="0px" y="0px"
	 viewBox="0 0 32 32" style="enable-background:new 0 0 32 32;" xml:space="preserve" width="32" height="32">
<path class="navbar__link-icon-path" d="M27.7,15.3L23,10.6c-0.2-0.2-0.4-0.3-0.7-0.3c-0.5,0-1,0.5-1,1c0,0.3,0.1,0.5,0.3,0.7l3,3H10.3
	c-0.5,0-1,0.4-1,1c0,0.5,0.4,1,1,1c0,0,0,0,0,0h14.3l-3,3c-0.4,0.4-0.4,1,0,1.4c0.4,0.4,1,0.4,1.4,0c0,0,0,0,0,0l4.7-4.7
	C28.1,16.3,28.1,15.7,27.7,15.3z"/>
<path class="navbar__link-icon-indicator" d="M7.7,6h12c0.9,0,1.7,0.7,1.7,1.7c0,0.5,0.4,1,1,1s1-0.4,1-1c0,0,0,0,0,0c0-2-1.7-3.7-3.7-3.7h-12
	C5.7,4,4,5.7,4,7.7v16.7c0,2,1.7,3.7,3.7,3.7h12c2,0,3.7-1.7,3.7-3.7c0-0.5-0.4-1-1-1c-0.5,0-1,0.4-1,1c0,0,0,0,0,0
	c0,0.9-0.7,1.7-1.7,1.7h-12C6.7,26,6,25.3,6,24.3V7.7C6,6.7,6.7,6,7.7,6z"/>
</svg>
