<svg version="1.1" class="navbar__link-icon" xmlns="http://www.w3.org/2000/svg" xmlns:xlink="http://www.w3.org/1999/xlink" x="0px" y="0px"
	 viewBox="0 0 32 32" style="enable-background:new 0 0 32 32;" xml:space="preserve">
<path class="navbar__link-icon-path" d="M16,3.4L16,3.4c-3.7,0-6.7,3-6.7,6.7c0,3.5,2.8,6.4,6.3,6.6c0.1,0,0.2,0.1,0.4,0.1l0,0c0.1,0,0.3,0,0.4-0.1
	c3.5-0.2,6.3-3.1,6.3-6.6C22.7,6.4,19.7,3.4,16,3.4z M16,14.7c-2.6,0-4.7-2.1-4.7-4.7s2.1-4.7,4.7-4.7s4.7,2.1,4.7,4.7
	S18.6,14.7,16,14.7z"/>
<path class="navbar__link-icon-indicator" d="M29.8,16.9c-0.6-0.6-1.3-0.9-2.1-0.9h-0.6c-0.6,0.1-1.1,0.4-1.6,0.9l-0.9,0.9l4.2,4.2l0.9-0.9
	c0.5-0.5,0.8-1,0.9-1.6V19C30.7,18.2,30.4,17.5,29.8,16.9z M23.2,19.2l-5.5,5.5c-0.2,0.2-0.4,0.5-0.5,0.9l-1,3.7
	c0,0.1-0.1,0.3-0.1,0.4c0,0.2,0.1,0.5,0.3,0.7c0.2,0.2,0.4,0.3,0.7,0.3c0.1,0,0.3,0,0.4-0.1l3.7-1c0.3-0.1,0.6-0.3,0.9-0.5l5.5-5.6
	L23.2,19.2z"/>
<path class="navbar__link-icon-indicator" d="M8.3,21.4h10.8l2-2H8.3c-1.7,0-3,1.3-3,3v0.8c0,3.6,4,6.4,9.4,6.8c0-0.1,0-0.2,0-0.2c0-0.3,0-0.6,0.1-0.9L15,28
	c-4.8-0.3-7.7-2.6-7.7-4.8v-0.8C7.3,21.8,7.8,21.4,8.3,21.4z"/>
</svg>
