<svg class="navbar__brand" xmlns="http://www.w3.org/2000/svg" viewBox="0 0 900 900"><defs><style>.cls-1{fill:var(--neutral)} .cls-2{fill:var(--accent)}</style></defs><rect class="cls-2" x="400" y="200" width="100" height="350" rx="50"/><path class="cls-1" d="M600,300a50,50,0,0,0-50,50V500a100,100,0,0,1-200,0V350a50,50,0,0,0-100,0V500c0,110.28,89.72,200,200,200s200-89.72,200-200V350A50,50,0,0,0,600,300Z"/><path class="cls-1" d="M750,400a50,50,0,0,0-50,50v50c0,137.85-112.15,250-250,250S200,637.85,200,500V450a50,50,0,0,0-100,0v50A350.07,350.07,0,0,0,772.47,636.25,347.74,347.74,0,0,0,800,500V450A50,50,0,0,0,750,400Z"/><path class="cls-1" d="M879.82,309.87,800,250V175a50,50,0,0,0-100,0v0L480,10a50,50,0,0,0-60,0L20.18,309.87A50,50,0,1,0,80,390L450,112.5,820,390a50,50,0,1,0,59.84-80.12Z"/></svg>