<svg class="navbar__link-icon" version="1.1" id="Layer_1" xmlns="http://www.w3.org/2000/svg" xmlns:xlink="http://www.w3.org/1999/xlink" x="0px" y="0px"
	 viewBox="0 0 32 32" style="enable-background:new 0 0 32 32;" xml:space="preserve" width="32" height="32">
<path class="navbar__link-icon-path" d="M16,10.7c-2.9,0-5.3,2.4-5.3,5.3s2.4,5.3,5.3,5.3s5.3-2.4,5.3-5.3S18.9,10.7,16,10.7z M16,19.3
	c-1.8,0-3.3-1.5-3.3-3.3s1.5-3.3,3.3-3.3s3.3,1.5,3.3,3.3S17.8,19.3,16,19.3z M16,10.7c-2.9,0-5.3,2.4-5.3,5.3s2.4,5.3,5.3,5.3
	s5.3-2.4,5.3-5.3S18.9,10.7,16,10.7z M16,19.3c-1.8,0-3.3-1.5-3.3-3.3s1.5-3.3,3.3-3.3s3.3,1.5,3.3,3.3S17.8,19.3,16,19.3z M16,10.7
	c-2.9,0-5.3,2.4-5.3,5.3s2.4,5.3,5.3,5.3s5.3-2.4,5.3-5.3S18.9,10.7,16,10.7z M16,19.3c-1.8,0-3.3-1.5-3.3-3.3s1.5-3.3,3.3-3.3
	s3.3,1.5,3.3,3.3S17.8,19.3,16,19.3z"/>
<path class="navbar__link-icon-indicator" d="M28.4,18.8l-1.6-1.2c-0.5-0.4-0.8-1-0.8-1.6s0.3-1.2,0.8-1.6l1.6-1.2c0.3-0.2,0.5-0.7,0.4-1.1
	c-0.6-2-1.7-3.8-3-5.2c-0.3-0.3-0.8-0.4-1.1-0.2l-1.8,0.8c-0.6,0.3-1.2,0.2-1.8-0.1c-0.5-0.3-0.9-0.9-1-1.5l-0.2-1.9
	c0-0.4-0.3-0.8-0.8-0.9c-1-0.2-2-0.4-3-0.4S13.9,2.8,13,3c-0.4,0.1-0.7,0.4-0.8,0.9L12,5.8c-0.1,0.6-0.4,1.2-1,1.5
	c-0.5,0.3-1.2,0.3-1.8,0.1h0L7.4,6.7C7,6.5,6.6,6.6,6.3,6.9c-1.4,1.5-2.4,3.2-3,5.2c-0.1,0.4,0,0.8,0.4,1.1l1.6,1.2
	C5.7,14.8,6,15.4,6,16s-0.3,1.2-0.8,1.6l-1.6,1.2c-0.3,0.2-0.5,0.7-0.4,1.1c0.6,2,1.7,3.8,3,5.2c0.3,0.3,0.8,0.4,1.1,0.2l1.8-0.8
	c0.6-0.3,1.3-0.2,1.8,0.1c0.5,0.3,0.9,0.9,1,1.5l0.2,1.9c0,0.4,0.3,0.8,0.8,0.9c1,0.2,2,0.4,3,0.4s2.1-0.1,3-0.4
	c0.4-0.1,0.7-0.4,0.8-0.9l0.2-1.9c0.1-0.6,0.4-1.2,1-1.5c0.5-0.3,1.2-0.4,1.8-0.1l1.8,0.8c0.4,0.2,0.8,0.1,1.1-0.2
	c1.4-1.5,2.4-3.2,3-5.2C28.9,19.5,28.7,19,28.4,18.8z M24.7,23.2l-1.1-0.5c-1.2-0.5-2.5-0.4-3.6,0.2s-1.8,1.8-2,3l-0.1,1.1
	c-0.6,0.1-1.2,0.2-1.9,0.2s-1.3-0.1-1.9-0.2L14,26c-0.1-1.3-0.9-2.4-2-3s-2.5-0.7-3.6-0.2l-1.1,0.5c-0.8-1-1.5-2.1-1.9-3.3l0.9-0.7
	c1-0.8,1.6-2,1.6-3.2s-0.6-2.5-1.6-3.2l-0.9-0.7c0.5-1.2,1.1-2.3,1.9-3.3l1.1,0.5c1.2,0.5,2.5,0.4,3.6-0.2s1.8-1.8,2-3l0.1-1.1
	c0.6-0.1,1.2-0.2,1.9-0.2s1.3,0.1,1.9,0.2L18,6c0.1,1.3,0.9,2.4,2,3s2.5,0.7,3.6,0.2l1.1-0.5c0.8,1,1.5,2.1,1.9,3.3l-0.9,0.7
	c-1,0.8-1.6,2-1.6,3.2s0.6,2.5,1.6,3.2l0.9,0.7C26.1,21.1,25.5,22.2,24.7,23.2z"/>
</svg>
