<svg id="Layer_1" data-name="Layer 1" xmlns="http://www.w3.org/2000/svg" viewBox="0 0 900 900"><defs><style>.cls-1{fill:#231f20;}.cls-2{fill:none;stroke:#231f20;stroke-miterlimit:10;stroke-width:100px;}</style></defs><path class="cls-1" d="M450,900A349.77,349.77,0,0,1,100,550H200c0,137.85,112.15,250,250,250S700,687.85,700,550H800A349.77,349.77,0,0,1,450,900Z"/><rect class="cls-1" x="400" y="200" width="100" height="400" rx="50"/><circle class="cls-1" cx="600" cy="350" r="50"/><circle class="cls-1" cx="300" cy="350" r="50"/><path class="cls-1" d="M450,750c-110.28,0-200-89.72-200-200H350a100,100,0,0,0,200,0H650C650,660.28,560.28,750,450,750Z"/><rect class="cls-1" x="250" y="350" width="100" height="200"/><rect class="cls-1" x="550" y="350" width="100" height="200"/><circle class="cls-1" cx="750" cy="450" r="50"/><circle class="cls-1" cx="150" cy="450" r="50"/><rect class="cls-1" x="700" y="450" width="100" height="100"/><rect class="cls-1" x="100" y="450" width="100" height="100"/><circle class="cls-1" cx="450" cy="50" r="50"/><circle class="cls-1" cx="850" cy="350" r="50"/><circle class="cls-1" cx="50" cy="350" r="50"/><line class="cls-2" x1="50" y1="350" x2="450" y2="50"/><line class="cls-2" x1="850" y1="350" x2="450" y2="50"/><circle class="cls-1" cx="750" cy="174.98" r="50"/><rect class="cls-1" x="700" y="174.98" width="100" height="125"/></svg>